<svg xmlns="http://www.w3.org/2000/svg" viewBox="0 0 1024 1024" role="img" aria-labelledby="title">
  <title id="title">TransPop monochrome logo</title>
  <path fill="currentColor" fill-rule="evenodd" d="M288 144C164 144 96 212 96 336V544C96 668 164 736 288 736H316L300 850L440 736H498L626 844V736H736C860 736 928 668 928 544V416C928 292 860 224 736 224H716C680 172 622 144 544 144H288ZM288 220H544C622 220 660 258 660 336V474C660 552 622 590 544 590H408L342 644L350 590H288C210 590 172 552 172 474V336C172 258 210 220 288 220ZM454 366H286V418H454L420 448L456 486L554 392L456 298L420 336L454 366ZM692 502H554L582 478L550 444L466 522L550 600L582 566L554 542H692V502Z"/>
</svg>